{"title":"The Maze Runner 2014 HDCAM x264 AAC-MiLLENiUM","uid":11545527,"size":926525290,"categoryP":"video","categoryS":"movies","magnet":"?xt=urn:btih:77c313691e17ac08ddcc118fd478ac1683fac87a&amp;dn=The+Maze+Runner+2014+HDCAM+x264+AAC-MiLLENiUM&amp;tr=udp%3A%2F%2Ftracker.openbittorrent.com%3A80&amp;tr=udp%3A%2F%2Fopen.demonii.com%3A1337&amp;tr=udp%3A%2F%2Ftracker.coppersurfer.tk%3A6969&amp;tr=udp%3A%2F%2Fexodus.desync.com%3A6969","seeders":4,"leechers":1,"uploader":"makintos13","files":3,"time":1416724456,"description":"Screens:\n &lt;a href=&quot;\nhttp://imgsleek.com/img-54717112a60c2.html&quot; rel=&quot;nofollow&quot; target=&quot;_NEW&quot;&gt;\nhttp://imgsleek.com/img-54717112a60c2.html&lt;/a&gt;\n &lt;a href=&quot;\nhttp://imgsleek.com/img-54717112a9fdb.html&quot; rel=&quot;nofollow&quot; target=&quot;_NEW&quot;&gt;\nhttp://imgsleek.com/img-54717112a9fdb.html&lt;/a&gt;\n &lt;a href=&quot;\nhttp://imgsleek.com/img-54717112ad7f3.html&quot; rel=&quot;nofollow&quot; target=&quot;_NEW&quot;&gt;\nhttp://imgsleek.com/img-54717112ad7f3.html&lt;/a&gt;\n\n\n............................................................\n\nSource: TC720P.X264.AAC.Mandarin.Mp4Ba ... CAM AUDIO yes its insync too [THANKS]\nIMDb Information: http://www.imdb.com/title/tt1790864/\nSample Included: yes\nNotes: video is from a television capture, put some adjustments to it the audio i got from acabs encode, i just run it through a normalizer and applied dynamic range compression\n\nGeneral\nComplete name: The Maze Runner 2014 HDCAM x264 AAC-MiLLENiUM.mp4\nFormat: MPEG-4\nFormat profile: Base Media\nCodec ID: isom\nFile size: 858 MiB\nDuration: 1h 53mn\nOverall bit rate mode: Variable\nOverall bit rate: 1 057 Kbps\nEncoded date: UTC 2014-11-22 19:45:02\nTagged date: UTC 2014-11-22 19:45:02\n\nVideo\nID: 1\nFormat: AVC\nFormat/Info: Advanced Video Codec\nFormat profile: &lt;a class=&quot;__cf_email__&quot; href=&quot;/cdn-cgi/l/email-protection&quot; data-cfemail=&quot;0149686669414d352f30&quot;&gt;[email&amp;#160;protected]&lt;/a&gt;&lt;script cf-hash='f9e31' type=&quot;text/javascript&quot;&gt;\n/* &lt;![CDATA[ */!function(){try{var t=&quot;currentScript&quot;in document?document.currentScript:function(){for(var t=document.getElementsByTagName(&quot;script&quot;),e=t.length;e--;)if(t[e].getAttribute(&quot;cf-hash&quot;))return t[e]}();if(t&amp;&amp;t.previousSibling){var e,r,n,i,c=t.previousSibling,a=c.getAttribute(&quot;data-cfemail&quot;);if(a){for(e=&quot;&quot;,r=parseInt(a.substr(0,2),16),n=2;a.length-n;n+=2)i=parseInt(a.substr(n,2),16)^r,e+=String.fromCharCode(i);e=document.createTextNode(e),c.parentNode.replaceChild(e,c)}}}catch(u){}}();/* ]]&gt; */&lt;/script&gt;\nFormat settings, CABAC: Yes\nFormat settings, ReFrames: 3 frames\nCodec ID: avc1\nCodec ID/Info: Advanced Video Coding\nDuration: 1h 53mn\nBit rate mode: Variable\nBit rate: 962 Kbps\nMaximum bit rate: 40.0 Mbps\nWidth: 720 pixels\nHeight: 304 pixels\nDisplay aspect ratio: 2.35:1\nFrame rate mode: Constant\nFrame rate: 28.626 fps\nColor space: YUV\nChroma subsampling: 4:2:0\nBit depth: 8 bits\nScan type: Progressive\nBits/(Pixel*Frame): 0.154\nStream size: 781 MiB (91%)\nWriting library: x264 core 142 r2479 dd79a61\nColor range: Full\n\nAudio\nID: 2\nFormat: AAC\nFormat/Info: Advanced Audio Codec\nFormat profile: LC\nCodec ID: 40\nDuration: 1h 46mn\nBit rate mode: Variable\nBit rate: 96.0 Kbps\nMaximum bit rate: 111 Kbps\nChannel(s): 2 channels\nChannel positions: Front: L R\nSampling rate: 48.0 KHz\nCompression mode: Lossy\nStream size: 73.3 MiB (9%)\nLanguage: English\nEncoded date: UTC 2014-11-22 18:31:35\nTagged date: UTC 2014-11-22 19:45:45 Plot\nThomas is deposited in a community of boys after his memory is erased, soon learning they're all trapped in a maze that will require him to join forces with fellow &quot;runners&quot; for a shot at escape","torrent":{"xt":"urn:btih:77c313691e17ac08ddcc118fd478ac1683fac87a","amp;dn":"The+Maze+Runner+2014+HDCAM+x264+AAC-MiLLENiUM","amp;tr":["udp%3A%2F%2Ftracker.openbittorrent.com%3A80","udp%3A%2F%2Fopen.demonii.com%3A1337","udp%3A%2F%2Ftracker.coppersurfer.tk%3A6969","udp%3A%2F%2Fexodus.desync.com%3A6969"],"infoHash":"77c313691e17ac08ddcc118fd478ac1683fac87a","infoHashBuffer":{"type":"Buffer","data":[119,195,19,105,30,23,172,8,221,204,17,143,212,120,172,22,131,250,200,122]},"announce":[],"urlList":[]}}